<?xml version="1.0" standalone="no"?>
<!DOCTYPE svg PUBLIC "-//W3C//DTD SVG 20010904//EN"
 "http://www.w3.org/TR/2001/REC-SVG-20010904/DTD/svg10.dtd">
<svg version="1.0" xmlns="http://www.w3.org/2000/svg"
 width="498.000000pt" height="498.000000pt" viewBox="0 0 498.000000 498.000000"
 preserveAspectRatio="xMidYMid meet">
<metadata>
Created by potrace 1.11, written by Peter Selinger 2001-2013
</metadata>
<g transform="translate(0.000000,498.000000) scale(0.100000,-0.100000)"
fill="#000000" stroke="none">
<path d="M1889 4719 c-20 -3 -61 -16 -92 -28 -66 -27 -125 -91 -134 -146 -3
-19 -11 -35 -18 -35 -7 0 -20 -11 -31 -24 -10 -14 -21 -23 -25 -21 -7 5 -129
-122 -129 -134 0 -3 -12 -8 -27 -9 -33 -2 -193 -80 -193 -93 0 -5 17 -1 38 9
20 10 65 29 100 43 34 13 62 26 62 30 0 3 11 4 23 2 13 -3 30 1 38 9 8 7 25
19 39 25 14 7 19 12 10 12 -9 1 -26 -6 -38 -15 -41 -29 -24 7 29 58 28 27 48
43 43 36 -4 -7 6 0 22 16 34 33 63 46 105 46 16 0 41 7 54 16 14 9 32 13 45 9
12 -4 28 -1 36 6 8 6 29 12 46 13 17 1 33 6 35 13 3 7 -3 9 -16 6 -12 -3 -21
-1 -21 5 0 5 15 8 33 6 32 -3 32 -3 10 13 -26 17 -31 43 -8 43 8 0 24 13 36
29 18 24 29 29 54 27 29 -2 32 0 21 16 -6 10 -18 19 -26 19 -40 4 -90 3 -121
-2z"/>
<path d="M2051 4660 c-13 -11 -19 -20 -14 -20 6 0 18 9 28 20 23 25 17 25 -14
0z"/>
<path d="M1194 4625 c-7 -19 -14 -51 -14 -72 l1 -38 22 29 c12 17 27 49 33 73
11 40 11 43 -8 43 -12 0 -24 -12 -34 -35z"/>
<path d="M2830 4635 c0 -8 5 -15 10 -15 6 0 10 -9 10 -19 0 -10 7 -21 15 -25
9 -3 15 0 15 9 0 7 -7 20 -15 29 -8 8 -15 19 -15 25 0 6 -4 11 -10 11 -5 0
-10 -7 -10 -15z"/>
<path d="M2342 4624 c-74 -20 -104 -37 -148 -87 -27 -29 -53 -47 -84 -56 -25
-7 -66 -24 -92 -37 -26 -13 -58 -24 -70 -24 -19 0 -20 -2 -8 -10 8 -5 50 -10
93 -10 59 0 82 -4 95 -16 10 -11 17 -13 20 -5 4 13 74 15 88 2 5 -5 33 -16 62
-26 39 -12 52 -21 52 -36 0 -23 38 -85 72 -116 22 -21 223 -93 258 -93 21 0
40 20 39 39 0 11 -2 12 -6 4 -9 -24 -28 -13 -39 22 -11 34 -11 35 7 19 11 -10
22 -14 26 -11 3 4 1 7 -5 7 -7 0 -12 7 -12 15 0 25 -91 106 -150 133 -36 16
-84 28 -140 33 -47 4 -116 16 -155 26 -40 10 -107 18 -157 18 -49 0 -88 3 -88
6 0 3 37 16 83 28 45 13 95 29 111 37 26 12 31 12 46 -1 10 -9 55 -26 101 -39
98 -26 121 -22 188 34 29 24 45 47 50 71 8 36 7 37 -33 53 -22 10 -49 21 -58
27 -25 13 -83 10 -146 -7z"/>
<path d="M1117 4536 c-3 -6 -1 -38 5 -70 10 -70 -3 -97 -22 -42 -10 32 -34 56
-56 56 -14 0 3 -110 20 -129 13 -15 16 -28 11 -53 -5 -25 -4 -29 4 -18 9 13
12 13 20 1 7 -11 14 -11 37 4 38 22 77 72 69 85 -5 8 -11 8 -19 1 -7 -6 -16
-8 -19 -4 -4 3 -7 2 -7 -4 0 -5 -6 -10 -14 -10 -11 0 -12 5 -3 24 5 13 16 23
23 23 36 0 111 106 90 127 -11 11 -53 -18 -66 -46 l-13 -26 -9 41 c-9 41 -41
66 -51 40z"/>
<path d="M3680 4515 c0 -9 6 -12 15 -9 8 4 15 7 15 9 0 2 -7 5 -15 9 -9 3 -15
0 -15 -9z"/>
<path d="M2881 4515 c0 -5 6 -19 14 -29 21 -27 19 -35 -7 -28 -18 4 -13 -4 22
-42 48 -51 104 -90 121 -84 6 2 0 15 -13 29 -13 14 -39 45 -58 69 -58 73 -79
96 -79 85z m65 -97 l19 -21 -27 18 c-29 18 -34 25 -20 25 5 0 17 -10 28 -22z"/>
<path d="M3720 4489 c0 -5 5 -7 10 -4 6 3 10 8 10 11 0 2 -4 4 -10 4 -5 0 -10
-5 -10 -11z"/>
<path d="M3761 4454 c10 -13 10 -17 -2 -25 -11 -7 -11 -9 4 -9 9 0 17 4 17 9
0 18 -12 41 -22 41 -6 0 -5 -7 3 -16z"/>
<path d="M3841 4431 c-10 -6 -9 -10 3 -14 8 -3 18 -2 21 3 8 13 -9 20 -24 11z"/>
<path d="M3784 4405 c-5 -13 1 -24 19 -37 15 -11 25 -24 22 -29 -4 -5 1 -6 9
-3 13 5 11 12 -11 42 -15 21 -28 39 -30 41 -1 2 -6 -4 -9 -14z"/>
<path d="M3854 4383 c15 -39 18 -63 6 -63 -6 0 -8 -4 -5 -10 9 -15 25 -12 25
4 0 8 7 17 16 20 12 4 14 1 9 -14 -5 -14 -2 -20 9 -20 22 0 20 19 -7 60 -22
35 -64 53 -53 23z m41 -13 c3 -5 -1 -10 -9 -10 -9 0 -16 5 -16 10 0 6 4 10 9
10 6 0 13 -4 16 -10z"/>
<path d="M1637 4373 c-24 -6 -11 -23 18 -23 13 0 42 -16 65 -35 23 -19 45 -35
48 -35 4 0 21 -13 37 -28 17 -15 49 -42 73 -60 39 -31 53 -52 34 -52 -4 0 -31
21 -60 46 -59 52 -67 51 -21 -1 21 -23 30 -42 26 -55 -6 -24 14 -39 83 -66 25
-9 54 -25 66 -36 44 -39 59 -7 27 59 -13 28 -14 36 -3 43 23 14 -7 76 -63 125
-62 56 -88 71 -147 79 -100 15 -150 28 -145 37 6 9 -7 10 -38 2z"/>
<path d="M1578 4358 c5 -5 16 -8 23 -6 8 3 3 7 -10 11 -17 4 -21 3 -13 -5z"/>
<path d="M2170 4351 c0 -5 5 -13 10 -16 6 -3 10 -15 10 -26 0 -10 4 -19 9 -19
4 0 3 -18 -3 -41 -12 -44 -2 -59 42 -59 14 0 22 -6 22 -16 0 -14 -3 -14 -16
-3 -13 10 -17 10 -25 -2 -14 -22 -11 -66 6 -73 8 -3 15 -12 15 -21 0 -8 4 -15
9 -15 5 0 7 -8 5 -17 -4 -13 6 -24 31 -37 20 -11 41 -28 46 -38 6 -10 14 -16
20 -13 5 4 9 -1 9 -9 0 -35 19 -13 29 34 19 86 14 127 -21 189 -38 65 -45 74
-118 133 -68 54 -80 62 -80 49z"/>
<path d="M964 4273 c4 -74 20 -123 38 -123 13 0 18 18 6 23 -10 3 -11 9 0 26
22 38 15 88 -19 123 l-30 33 5 -82z"/>
<path d="M3730 4347 c0 -14 32 -70 55 -95 19 -20 28 -23 56 -17 l34 8 -29 8
c-16 5 -34 6 -40 3 -6 -3 -2 2 8 10 11 9 15 16 9 16 -6 0 -14 11 -17 25 -4 14
-11 25 -17 25 -8 0 -7 -5 1 -15 10 -12 10 -15 -4 -15 -9 0 -16 5 -16 12 0 6
-3 8 -7 4 -4 -3 -13 4 -20 16 -7 13 -12 19 -13 15z"/>
<path d="M3900 4282 c0 -7 7 -15 15 -18 21 -9 19 -29 -4 -31 -13 -1 -21 6 -24
20 -4 18 -4 18 -6 -5 -1 -31 17 -47 30 -27 6 10 9 6 9 -13 0 -29 -14 -38 -23
-15 -4 8 -6 8 -6 0 -1 -6 -10 -9 -23 -6 l-23 5 23 -17 c15 -11 32 -15 48 -11
21 6 28 0 56 -46 17 -28 34 -46 36 -40 4 13 -25 97 -44 125 -12 18 -12 18 -23
0 -8 -14 -10 -15 -11 -2 0 8 5 20 11 26 7 7 3 19 -15 39 -14 16 -26 23 -26 16z
m58 -94 c-3 -7 1 -19 9 -26 7 -7 13 -18 13 -24 0 -6 -8 0 -19 13 -10 13 -16
29 -14 36 7 17 16 17 11 1z"/>
<path d="M4020 4270 c0 -4 9 -10 20 -13 11 -3 20 -2 20 3 0 4 -9 10 -20 13
-11 3 -20 2 -20 -3z"/>
<path d="M4016 4227 c-13 -53 46 -231 88 -266 9 -8 16 -24 16 -36 0 -26 25
-41 37 -22 27 41 42 195 24 240 -9 25 -25 23 -32 -5 -5 -19 -8 -15 -14 20 -4
24 -16 53 -25 65 l-18 22 5 -26 c3 -15 0 -30 -6 -33 -6 -4 -11 -1 -11 7 0 7
-13 23 -29 35 l-29 21 -6 -22z m44 -33 c0 -8 -6 -11 -15 -8 -8 4 -15 9 -15 13
0 4 7 8 15 8 8 0 15 -6 15 -13z m55 -34 c-3 -5 -13 -10 -21 -10 -8 0 -12 5 -9
10 3 6 13 10 21 10 8 0 12 -4 9 -10z m15 -20 c0 -5 -10 -10 -22 -9 -22 0 -22
1 -3 9 11 5 21 9 23 9 1 1 2 -3 2 -9z"/>
<path d="M915 4186 c-10 -14 -15 -33 -11 -41 3 -9 2 -14 -3 -11 -11 7 -21 -28
-21 -78 0 -27 -7 -47 -22 -63 -40 -43 -3 -23 41 22 24 25 50 45 57 45 26 0 95
44 89 58 -2 7 -1 11 3 8 5 -3 26 11 47 30 l39 34 -30 0 c-23 0 -41 -11 -73
-45 -24 -25 -51 -45 -61 -45 -10 0 -21 -7 -24 -16 -4 -9 -9 -14 -13 -11 -3 4
-1 12 5 20 20 24 26 92 9 106 -13 10 -18 8 -32 -13z"/>
<path d="M1029 4193 c-13 -16 -12 -17 4 -4 9 7 17 15 17 17 0 8 -8 3 -21 -13z"/>
<path d="M2162 4190 c0 -14 2 -19 5 -12 2 6 2 18 0 25 -3 6 -5 1 -5 -13z"/>
<path d="M1452 4167 c-62 -74 -65 -284 -4 -272 15 2 22 -3 27 -22 4 -19 11
-24 25 -20 21 5 28 -9 9 -15 -7 -2 -5 -9 5 -17 14 -12 16 -9 16 30 0 28 -3 39
-9 31 -5 -9 -11 5 -16 40 -11 71 -8 130 7 139 9 6 7 18 -7 51 -26 60 -38 73
-53 55z"/>
<path d="M3210 4162 c0 -4 5 -13 11 -19 7 -7 6 -12 -5 -16 -11 -4 -16 -1 -16
11 -1 16 -1 16 -11 -1 -14 -23 -2 -39 24 -32 16 5 18 4 8 -4 -11 -7 -8 -10 15
-14 16 -2 -5 -5 -46 -6 -65 -1 -80 2 -112 24 -20 14 -40 25 -43 25 -3 0 -3
-11 1 -25 6 -24 4 -25 -39 -25 -25 0 -49 5 -52 10 -7 11 -67 13 -102 4 -34 -9
-29 -40 8 -53 44 -15 59 -14 104 9 63 32 78 14 18 -20 -56 -32 -69 -45 -53
-55 5 -3 10 -1 10 6 0 7 9 6 25 -5 17 -11 31 -14 43 -8 9 5 22 8 28 5 6 -2 30
15 52 37 23 22 51 40 61 40 11 0 26 3 35 6 9 3 16 1 16 -4 0 -6 -8 -13 -19
-17 -27 -8 -56 -37 -57 -57 -1 -10 2 -16 6 -13 5 3 10 2 13 -2 2 -5 2 -2 1 5
-2 6 1 12 6 12 6 0 10 -9 10 -19 0 -11 5 -23 11 -27 14 -9 81 57 74 74 -2 7 0
10 5 7 16 -10 51 38 37 48 -7 5 -2 6 11 2 13 -4 22 -2 22 4 0 6 -6 11 -13 11
-20 0 -50 37 -41 51 4 7 3 10 -3 6 -6 -4 -13 2 -16 13 -5 19 -27 29 -27 12z
m-163 -115 c0 -7 -9 -14 -20 -14 -19 -2 -19 -2 -1 12 11 8 19 15 20 15 0 0 1
-6 1 -13z"/>
<path d="M3368 4151 c-23 -23 -23 -23 7 -55 28 -30 32 -31 32 -11 0 8 -7 15
-14 15 -8 0 -11 5 -8 10 12 19 38 11 32 -9 -6 -23 15 -34 33 -18 10 9 11 9 6
0 -6 -12 25 -48 42 -48 4 0 13 -4 19 -8 9 -6 11 -3 7 7 -3 9 -10 16 -15 16 -4
0 -5 7 -2 17 4 11 3 14 -5 9 -7 -4 -10 -2 -7 6 7 19 -63 88 -89 87 -11 0 -29
-8 -38 -18z m61 -5 c10 -12 8 -13 -8 -9 -12 3 -21 9 -21 14 0 14 16 11 29 -5z"/>
<path d="M3426 4058 c3 -4 9 -8 15 -8 5 0 9 4 9 8 0 5 -7 9 -15 9 -8 0 -12 -4
-9 -9z"/>
<path d="M3358 4053 c7 -3 16 -2 19 1 4 3 -2 6 -13 5 -11 0 -14 -3 -6 -6z"/>
<path d="M3390 4041 c0 -4 -16 -13 -35 -20 -19 -7 -35 -16 -35 -21 0 -5 6 -7
14 -4 21 8 26 -41 7 -63 -9 -10 -10 -13 -2 -6 15 13 44 6 35 -8 -7 -12 13 -11
37 2 11 5 16 15 13 21 -5 7 -2 8 5 4 15 -10 51 21 45 38 -3 9 6 11 33 8 37 -4
38 -4 19 14 -11 11 -31 19 -45 20 -14 1 -41 6 -58 12 -18 6 -33 7 -33 3z"/>
<path d="M1510 4030 c0 -5 5 -10 11 -10 5 0 7 5 4 10 -3 6 -8 10 -11 10 -2 0
-4 -4 -4 -10z"/>
<path d="M4313 4013 c-7 -3 -13 -9 -13 -14 0 -6 6 -7 13 -4 6 4 -3 -7 -21 -25
-20 -18 -40 -29 -49 -26 -10 4 -20 -7 -33 -37 -30 -68 -70 -236 -65 -270 10
-62 30 -117 42 -117 22 0 28 -25 29 -130 1 -58 3 -130 4 -160 l3 -55 7 55 c5
30 8 112 9 181 l1 125 32 15 c25 11 36 26 56 79 48 132 55 173 36 232 -9 29
-21 76 -28 104 -7 33 -15 49 -23 47z m7 -93 c0 -5 -2 -10 -4 -10 -3 0 -8 5
-11 10 -3 6 -1 10 4 10 6 0 11 -4 11 -10z m-70 -54 c0 -11 -19 -15 -25 -6 -3
5 1 10 9 10 9 0 16 -2 16 -4z m50 -29 c-27 -15 -36 -14 -25 2 3 6 16 11 28 11
21 0 21 -1 -3 -13z m20 -121 c0 -2 -7 -7 -16 -10 -8 -3 -12 -2 -9 4 6 10 25
14 25 6z m-100 -76 c0 -5 -5 -10 -11 -10 -5 0 -7 5 -4 10 3 6 8 10 11 10 2 0
4 -4 4 -10z m-33 -42 c-3 -8 -6 -5 -6 6 -1 11 2 17 5 13 3 -3 4 -12 1 -19z
m66 -23 c-3 -9 -8 -14 -10 -11 -3 3 -2 9 2 15 9 16 15 13 8 -4z"/>
<path d="M920 3980 c-19 -10 -42 -22 -50 -27 -8 -4 -30 -17 -49 -30 l-34 -23
37 0 c75 0 196 76 150 94 -19 7 -12 9 -54 -14z"/>
<path d="M3266 3962 c-3 -5 1 -9 9 -9 8 0 12 4 9 9 -3 4 -7 8 -9 8 -2 0 -6 -4
-9 -8z"/>
<path d="M3605 3960 c27 -12 43 -12 25 0 -8 5 -22 9 -30 9 -10 0 -8 -3 5 -9z"/>
<path d="M3328 3953 c7 -3 16 -2 19 1 4 3 -2 6 -13 5 -11 0 -14 -3 -6 -6z"/>
<path d="M1567 3920 c3 -11 7 -20 9 -20 2 0 4 9 4 20 0 11 -4 20 -9 20 -5 0
-7 -9 -4 -20z"/>
<path d="M1331 3874 c0 -11 3 -14 6 -6 3 7 2 16 -1 19 -3 4 -6 -2 -5 -13z"/>
<path d="M1581 3875 c1 -19 18 -51 18 -35 0 8 -4 22 -9 30 -5 8 -9 11 -9 5z"/>
<path d="M1440 3844 c0 -6 7 -19 15 -30 8 -10 14 -14 14 -9 0 6 -6 19 -14 29
-8 11 -15 15 -15 10z"/>
<path d="M870 3823 c-50 -35 -100 -95 -98 -118 1 -13 6 -21 10 -19 4 3 8 0 8
-7 0 -7 3 -10 6 -7 3 4 1 15 -5 26 -13 25 12 57 52 67 15 4 30 11 33 16 3 5
-2 6 -10 3 -9 -3 -16 -1 -16 4 0 19 20 24 37 10 14 -11 16 -11 11 4 -4 10 -1
19 9 22 11 4 14 2 9 -9 -3 -8 -1 -15 4 -15 6 0 10 -5 10 -11 0 -5 -4 -8 -9 -5
-11 7 -37 -23 -46 -54 -4 -14 -13 -32 -20 -40 -7 -8 -15 -28 -18 -45 -8 -50
-26 -87 -38 -79 -7 4 -10 2 -8 -5 3 -7 7 -11 10 -9 3 2 13 -3 22 -10 11 -9 17
-10 22 -2 4 6 14 9 22 6 11 -5 13 -1 8 15 -5 16 -4 19 5 14 9 -5 11 -4 6 4 -4
6 -12 9 -17 6 -15 -10 -10 17 11 60 11 22 19 48 20 57 0 14 7 17 41 13 23 -2
47 -9 53 -16 8 -9 6 -10 -9 -5 -18 5 -19 5 -3 -7 17 -14 14 -62 -3 -51 -5 3
-9 0 -9 -6 0 -7 -7 -10 -15 -6 -9 3 -15 0 -15 -8 0 -8 6 -17 13 -19 11 -5 -17
-11 -35 -8 -5 0 -8 -6 -8 -14 0 -23 4 -30 15 -27 6 2 -1 -8 -14 -22 -14 -14
-27 -23 -30 -20 -3 3 1 9 9 14 20 12 9 20 -18 13 -24 -6 -28 -23 -10 -41 9 -9
8 -12 -6 -12 -12 0 -16 -5 -12 -16 3 -8 2 -12 -4 -9 -6 3 -10 19 -10 36 0 31
-17 39 -27 13 -3 -10 -8 -12 -12 -5 -5 7 -17 7 -36 2 -23 -7 -25 -9 -9 -10 12
-1 27 -7 33 -14 13 -16 10 -95 -4 -105 -18 -13 -115 -217 -127 -267 -6 -27
-13 -44 -16 -37 -2 6 -11 12 -20 12 -13 0 -14 -2 -3 -9 10 -6 11 -13 2 -29
-13 -25 -15 -106 -2 -98 5 3 14 -1 21 -9 10 -13 15 -13 32 -1 11 8 28 12 37 9
13 -4 13 -3 2 5 -11 8 -6 14 24 26 62 26 190 151 200 196 4 16 11 32 16 35 5
4 9 17 9 31 0 13 5 24 11 24 6 0 9 7 5 15 -3 8 -2 14 2 14 35 -6 69 49 69 109
0 23 -2 42 -6 43 -3 0 -14 2 -23 4 -11 2 -18 -3 -19 -13 -1 -10 -4 -6 -8 8 -4
14 -13 24 -19 23 -7 -2 -12 3 -12 11 0 15 56 33 67 22 4 -3 2 -6 -4 -6 -6 0
-14 -8 -17 -17 -4 -10 -4 -14 0 -10 4 4 13 2 20 -4 18 -14 35 -3 27 19 -3 9
-17 29 -31 44 -29 31 -24 63 8 53 11 -3 20 -2 20 3 0 16 58 74 68 68 10 -6 27
43 17 52 -3 3 -5 0 -5 -7 0 -7 -4 -9 -10 -6 -5 3 -10 -1 -10 -9 0 -10 -6 -13
-15 -10 -9 4 -15 0 -15 -10 0 -9 -7 -16 -16 -16 -9 0 -12 -5 -8 -11 4 -7 1
-10 -7 -7 -9 3 -13 16 -11 36 2 19 -1 32 -8 32 -6 0 -8 -5 -4 -12 4 -7 3 -8
-5 -4 -8 6 -9 12 -2 20 13 15 4 26 -20 26 -9 0 -19 7 -23 15 -3 8 -11 15 -18
14 -10 0 -10 -2 0 -6 6 -2 12 -9 12 -14 0 -12 -21 -11 -40 1 -13 9 -13 11 0
20 8 5 11 10 6 10 -5 0 1 12 15 27 18 20 20 25 7 20 -10 -4 -18 -2 -18 3 0 6
6 10 13 10 18 0 -14 20 -33 20 -9 0 -26 -8 -40 -17z m120 -293 c0 -5 -4 -10
-9 -10 -6 0 -13 5 -16 10 -3 6 1 10 9 10 9 0 16 -4 16 -10z m-164 -107 c-10
-10 -19 5 -10 18 6 11 8 11 12 0 2 -7 1 -15 -2 -18z m139 7 c3 -5 -3 -10 -15
-10 -12 0 -18 5 -15 10 3 6 10 10 15 10 5 0 12 -4 15 -10z m-118 -46 c-3 -3
-12 -4 -19 -1 -8 3 -5 6 6 6 11 1 17 -2 13 -5z m175 1 c3 -3 -2 -21 -10 -39
-11 -26 -21 -33 -35 -30 -11 2 -25 0 -31 -5 -7 -5 -18 -1 -29 9 -17 17 -16 18
25 24 32 5 39 9 28 16 -12 8 -10 10 8 10 13 0 20 4 17 10 -6 10 17 14 27 5z"/>
<path d="M4100 3800 c0 -5 5 -10 11 -10 5 0 7 5 4 10 -3 6 -8 10 -11 10 -2 0
-4 -4 -4 -10z"/>
<path d="M992 3767 c12 -20 24 -34 26 -32 7 7 -23 59 -36 63 -8 2 -4 -10 10
-31z"/>
<path d="M1275 3780 c-3 -5 -2 -10 4 -10 5 0 13 5 16 10 3 6 2 10 -4 10 -5 0
-13 -4 -16 -10z"/>
<path d="M3780 3730 c-21 -13 2 -123 37 -173 51 -74 88 -107 120 -107 17 0 36
-7 43 -15 17 -21 52 -19 93 5 19 11 41 18 50 15 8 -4 18 -2 22 4 3 6 1 11 -5
11 -6 0 -9 4 -6 9 4 5 1 11 -4 13 -6 2 -13 21 -16 43 -14 96 -56 142 -164 178
-77 25 -145 32 -170 17z m137 -66 c-3 -3 -12 -4 -19 -1 -8 3 -5 6 6 6 11 1 17
-2 13 -5z m122 -118 c6 -8 8 -16 4 -19 -10 -6 -64 39 -56 47 7 7 36 -8 52 -28z"/>
<path d="M4131 3714 c0 -11 3 -14 6 -6 3 7 2 16 -1 19 -3 4 -6 -2 -5 -13z"/>
<path d="M735 3663 c-8 -20 -13 -38 -10 -41 3 -3 5 0 5 7 0 7 3 10 8 8 4 -3
13 1 20 9 7 8 9 14 3 14 -5 0 -7 9 -4 20 9 33 -6 22 -22 -17z"/>
<path d="M1325 3661 c-6 -11 -162 -61 -188 -61 -8 0 -17 -7 -21 -15 -3 -8 -17
-15 -31 -15 -14 0 -25 -4 -25 -9 0 -18 32 -20 73 -6 23 8 52 15 64 15 12 0 25
5 28 10 3 6 16 10 29 10 25 0 102 65 87 74 -5 4 -12 2 -16 -3z"/>
<path d="M708 3603 c-17 -28 9 -202 33 -227 5 -5 4 6 -1 24 -6 19 -7 43 -4 52
3 10 1 18 -4 18 -16 0 -23 66 -11 94 9 19 9 30 2 37 -6 6 -13 7 -15 2z"/>
<path d="M755 3580 c-3 -5 -2 -10 4 -10 5 0 13 5 16 10 3 6 2 10 -4 10 -5 0
-13 -4 -16 -10z"/>
<path d="M1258 3533 c6 -2 18 -2 25 0 6 3 1 5 -13 5 -14 0 -19 -2 -12 -5z"/>
<path d="M4645 3485 c-27 -14 -58 -25 -67 -25 -18 0 -48 -11 -113 -41 -58 -26
-167 -147 -207 -229 -10 -19 -23 -42 -29 -51 -29 -39 25 -68 57 -31 14 16 29
19 115 16 85 -2 102 0 121 17 13 10 35 28 51 40 15 11 27 29 27 39 0 10 4 21
9 25 15 8 61 111 61 134 0 11 5 23 10 26 6 4 8 14 5 24 -3 11 4 26 20 41 24
23 25 40 2 40 -7 0 -34 -12 -62 -25z"/>
<path d="M760 3415 c0 -5 5 -17 10 -25 5 -8 10 -10 10 -5 0 6 -5 17 -10 25 -5
8 -10 11 -10 5z"/>
<path d="M420 3360 c0 -5 5 -10 11 -10 5 0 7 5 4 10 -3 6 -8 10 -11 10 -2 0
-4 -4 -4 -10z"/>
<path d="M3705 3336 c-22 -6 -64 -20 -92 -31 -47 -17 -53 -23 -53 -48 0 -39
33 -99 72 -132 45 -38 159 -92 236 -111 89 -22 160 -15 207 20 49 37 86 28
133 -33 31 -41 33 -42 26 -15 -4 16 -10 36 -14 44 -4 8 -5 20 -3 27 2 6 -1 14
-6 18 -6 3 -11 14 -11 24 0 10 -7 25 -16 32 -9 7 -34 40 -56 72 -42 62 -88 97
-127 97 -14 0 -32 6 -40 13 -42 35 -175 47 -256 23z m195 -136 c0 -13 -20 -13
-40 0 -12 8 -9 10 13 10 15 0 27 -4 27 -10z m45 -140 c-3 -5 -14 -10 -23 -10
-15 0 -15 2 -2 10 20 13 33 13 25 0z"/>
<path d="M407 3323 c-4 -3 -7 -11 -7 -17 0 -6 5 -5 12 2 6 6 9 14 7 17 -3 3
-9 2 -12 -2z"/>
<path d="M620 3275 c0 -8 4 -15 10 -15 5 0 7 7 4 15 -4 8 -8 15 -10 15 -2 0
-4 -7 -4 -15z"/>
<path d="M491 3158 c1 -43 6 -78 10 -78 11 0 9 123 -2 141 -6 9 -9 -13 -8 -63z"/>
<path d="M642 3210 c0 -14 2 -19 5 -12 2 6 2 18 0 25 -3 6 -5 1 -5 -13z"/>
<path d="M370 3134 c0 -8 5 -12 10 -9 6 4 8 11 5 16 -9 14 -15 11 -15 -7z"/>
<path d="M496 3038 c1 -18 5 -71 8 -117 3 -46 9 -88 14 -93 15 -15 44 3 39 23
-3 11 -1 19 4 19 5 0 9 14 9 30 0 17 -5 30 -12 30 -9 0 -9 3 -1 11 15 15 6 38
-24 67 -13 12 -22 26 -19 31 3 5 0 14 -8 20 -11 10 -13 6 -10 -21z"/>
<path d="M3690 2920 c0 -4 -9 -10 -20 -13 -25 -6 -25 -21 -1 -44 30 -29 60
-100 48 -112 -8 -8 -6 -11 5 -11 15 0 33 -26 30 -42 -1 -5 3 -8 9 -8 5 0 7 -4
4 -10 -3 -5 -15 -10 -26 -10 -16 0 -19 5 -14 23 5 16 4 18 -3 8 -8 -11 -15 -5
-31 25 -20 36 -21 37 -16 9 4 -16 10 -32 14 -35 4 -3 13 -20 20 -37 8 -18 19
-33 27 -33 7 0 16 -5 20 -12 4 -7 3 -8 -4 -4 -25 15 -10 -11 26 -45 41 -39 62
-51 106 -56 16 -2 35 -8 42 -14 8 -6 21 -9 29 -5 9 3 13 2 10 -4 -3 -5 7 -12
22 -16 15 -4 33 -10 38 -14 6 -4 24 -11 42 -15 34 -7 44 -26 59 -108 8 -45 24
-37 28 14 2 19 11 50 21 70 17 36 19 37 87 41 55 3 73 8 86 24 10 11 38 37 65
58 26 20 47 45 47 55 0 10 9 30 20 44 39 49 69 130 71 192 3 87 -6 99 -72 93
-42 -4 -73 -17 -141 -57 -48 -28 -99 -66 -113 -84 l-27 -32 5 80 c5 96 -7 70
-17 -35 -7 -76 -23 -141 -36 -150 -4 -3 -4 -32 1 -65 8 -56 -2 -126 -21 -148
-3 -4 -19 19 -34 51 -24 49 -26 63 -17 81 12 22 5 91 -9 91 -4 0 -7 -7 -6 -16
2 -28 -18 -26 -31 3 -15 31 -17 89 -4 97 4 3 7 -16 6 -42 -1 -26 0 -41 2 -34
3 6 11 12 19 12 18 0 18 10 -3 51 -19 38 -53 78 -53 63 0 -6 5 -15 10 -20 7
-7 7 -19 1 -35 -7 -17 -10 -19 -10 -6 -1 9 -5 17 -10 17 -17 0 -83 69 -77 79
4 6 12 8 19 6 7 -2 25 -6 42 -10 l30 -7 -25 22 c-35 31 -99 60 -135 60 l-30 0
30 -16 c38 -20 45 -28 18 -22 -13 4 -21 2 -20 -5 1 -5 -8 -13 -21 -16 -28 -7
-34 -24 -10 -29 9 -2 22 6 28 17 6 12 18 21 26 21 8 0 12 -4 9 -10 -3 -5 -2
-10 4 -10 5 0 13 5 16 10 3 6 12 10 18 10 7 0 4 -6 -5 -14 -10 -7 -14 -17 -10
-21 4 -4 -3 -2 -16 4 -18 10 -25 9 -37 -3 -8 -8 -15 -19 -15 -25 0 -14 1 -14
-48 9 -22 11 -47 20 -54 21 -7 0 -4 4 7 9 19 8 19 9 -2 9 -12 1 -24 5 -28 10
-6 11 26 31 47 30 7 0 4 -4 -6 -8 -13 -5 -1 -7 31 -7 42 1 48 3 32 12 -11 5
-18 12 -15 15 3 2 -20 11 -50 20 -30 9 -54 13 -54 9z m240 -60 c14 -11 20 -20
13 -20 -6 0 -15 5 -18 10 -4 6 -15 8 -26 5 -14 -5 -17 -3 -13 9 8 20 14 20 44
-4z m70 -186 c0 -2 -7 -4 -15 -4 -8 0 -15 4 -15 10 0 5 7 7 15 4 8 -4 15 -8
15 -10z m-236 -26 c-3 -4 -11 -5 -19 -1 -21 7 -19 12 4 10 11 0 18 -5 15 -9z
m316 -54 c0 -8 -5 -12 -10 -9 -6 4 -8 11 -5 16 9 14 15 11 15 -7z m-55 -104
c3 -5 -1 -10 -9 -10 -9 0 -16 5 -16 10 0 6 4 10 9 10 6 0 13 -4 16 -10z"/>
<path d="M4560 2920 c-13 -8 -12 -10 3 -10 9 0 17 5 17 10 0 12 -1 12 -20 0z"/>
<path d="M401 2803 c4 -21 6 -39 4 -42 -3 -2 3 -9 12 -16 14 -11 13 -13 -13
-19 -20 -5 -31 -3 -40 8 -6 9 -17 16 -25 17 -8 0 -3 5 11 11 25 11 25 11 3 15
-13 3 -23 11 -23 19 0 8 -7 14 -16 14 -11 0 -14 -6 -9 -20 4 -13 2 -20 -7 -20
-7 0 -1 -8 14 -17 22 -14 26 -22 21 -43 -3 -14 -9 -29 -14 -34 -8 -9 18 -68
34 -74 4 -2 7 -10 7 -17 0 -8 5 -17 12 -21 8 -5 9 -2 5 10 -4 10 -3 15 4 11 5
-4 8 -14 5 -23 -9 -28 20 -55 59 -56 19 -1 35 -4 35 -7 0 -4 15 -14 34 -23 25
-12 36 -24 38 -44 2 -20 8 -27 23 -25 11 1 23 -3 26 -9 3 -5 9 2 11 17 3 15 0
32 -8 40 -18 18 -18 31 -1 16 19 -15 29 -3 16 20 -6 13 -6 19 1 19 5 0 10 11
10 25 0 13 5 48 12 77 10 46 12 50 19 28 8 -27 8 -27 15 81 1 20 7 46 14 59
13 24 8 38 -7 18 -8 -12 -43 -133 -58 -201 -9 -43 -27 -27 -40 34 -6 30 -14
60 -18 67 -12 19 -25 14 -29 -10 -3 -20 -6 -17 -27 20 -14 23 -32 42 -40 42
-11 0 -12 3 -4 8 13 8 -21 53 -54 71 -20 10 -20 9 -12 -26z m12 -130 c5 -29
-15 -55 -21 -28 -2 9 -9 13 -15 9 -7 -3 -4 1 5 9 13 10 15 16 6 25 -9 9 -8 12
4 12 9 0 18 -11 21 -27z m167 -243 c0 -5 -2 -10 -4 -10 -3 0 -8 5 -11 10 -3 6
-1 10 4 10 6 0 11 -4 11 -10z"/>
<path d="M3662 2820 c0 -14 2 -19 5 -12 2 6 2 18 0 25 -3 6 -5 1 -5 -13z"/>
<path d="M543 2803 c-7 -3 -13 -9 -13 -15 0 -6 6 -8 14 -5 7 3 19 0 25 -6 8
-8 11 -8 11 1 0 7 1 15 3 19 3 8 -24 12 -40 6z"/>
<path d="M2331 2594 c0 -11 3 -14 6 -6 3 7 2 16 -1 19 -3 4 -6 -2 -5 -13z"/>
<path d="M787 2583 c-4 -3 -7 -11 -7 -17 0 -6 5 -5 12 2 6 6 9 14 7 17 -3 3
-9 2 -12 -2z"/>
<path d="M4750 2528 c-32 -16 -47 -32 -61 -64 -11 -23 -26 -45 -34 -48 -13 -5
-15 0 -9 29 8 45 -5 45 -51 -1 -29 -28 -35 -42 -33 -70 2 -32 4 -34 33 -28 22
4 35 1 44 -10 10 -11 31 -16 72 -16 33 0 59 3 59 6 0 21 -27 45 -63 55 -35 10
-39 13 -22 19 11 4 48 5 81 2 61 -5 80 3 65 27 -8 13 -29 19 -70 20 -24 1 -24
2 12 35 59 54 47 78 -23 44z"/>
<path d="M4875 2525 c-17 -7 -39 -23 -49 -34 -19 -21 -19 -21 16 -21 35 0 101
36 102 55 1 15 -35 15 -69 0z"/>
<path d="M1324 2400 c-25 -10 -56 -49 -48 -61 7 -12 63 11 74 31 20 38 13 46
-26 30z"/>
<path d="M648 2393 c7 -3 16 -2 19 1 4 3 -2 6 -13 5 -11 0 -14 -3 -6 -6z"/>
<path d="M4445 2387 c-32 -38 -77 -116 -87 -152 -11 -39 -33 -74 -77 -124 -29
-33 -26 -40 4 -11 16 15 39 24 63 25 38 2 101 26 139 55 20 16 21 17 2 28 -25
16 -33 15 -79 -7 -22 -11 -40 -18 -40 -17 0 15 48 94 65 108 13 10 29 34 35
53 15 46 0 72 -25 42z"/>
<path d="M1200 2315 c-7 -21 -22 -41 -36 -47 -13 -6 -24 -15 -24 -20 0 -4 -5
-8 -10 -8 -7 0 -7 6 0 20 8 14 8 26 0 40 -16 29 -33 14 -27 -24 2 -17 0 -39
-5 -49 -5 -9 -5 -16 -1 -15 4 1 26 -4 48 -10 43 -13 92 -16 82 -5 -4 3 -2 12
4 19 18 22 0 36 -37 29 -21 -3 -34 -2 -34 4 0 13 62 30 75 21 13 -9 33 -6 66
12 34 18 25 38 -17 38 -24 0 -33 4 -28 12 4 7 3 8 -5 4 -6 -4 -18 -3 -26 4
-10 9 -16 4 -25 -25z m-75 -24 c3 -5 1 -12 -5 -16 -5 -3 -10 1 -10 9 0 18 6
21 15 7z"/>
<path d="M4472 2294 c-39 -33 -41 -37 -26 -49 21 -15 194 -21 194 -7 0 25
-102 63 -114 43 -4 -6 -14 -7 -23 -4 -11 4 -14 3 -9 -5 5 -8 -2 -12 -19 -12
-26 0 -26 1 15 35 23 19 38 35 33 35 -4 0 -27 -17 -51 -36z"/>
<path d="M571 2310 c0 -8 4 -24 9 -35 5 -13 9 -14 9 -5 0 8 -4 24 -9 35 -5 13
-9 14 -9 5z"/>
<path d="M3779 2310 c-1 -3 -3 -39 -4 -81 -2 -45 -9 -87 -18 -105 -9 -16 -16
-22 -17 -14 0 13 -1 13 -10 0 -5 -8 -8 -22 -6 -30 2 -8 7 -32 11 -54 l6 -39
35 34 c19 18 43 57 54 86 21 56 27 118 11 108 -8 -5 -27 31 -24 45 2 7 -36 57
-38 50z m21 -50 c0 -13 -1 -13 -10 0 -5 8 -10 22 -10 30 0 13 1 13 10 0 5 -8
10 -22 10 -30z"/>
<path d="M3713 2260 c0 -25 2 -35 4 -22 2 12 2 32 0 45 -2 12 -4 2 -4 -23z"/>
<path d="M3830 2295 c0 -5 5 -17 10 -25 5 -8 10 -10 10 -5 0 6 -5 17 -10 25
-5 8 -10 11 -10 5z"/>
<path d="M476 2240 c11 -41 159 -200 186 -200 9 0 4 65 -7 93 -4 10 -5 21 -1
24 3 4 6 -1 6 -10 0 -9 5 -17 10 -17 15 0 12 39 -7 70 -14 24 -20 27 -40 19
-22 -8 -24 -7 -18 11 4 12 2 20 -5 20 -8 0 -10 -15 -5 -51 l7 -52 -23 22 c-12
11 -27 21 -33 21 -6 0 -25 17 -44 38 -29 33 -33 34 -26 12z m174 -52 c0 -11
-28 -10 -35 1 -3 6 4 9 15 8 11 -1 20 -5 20 -9z"/>
<path d="M989 2218 c-14 -26 -14 -101 0 -106 6 -2 9 -7 7 -10 -7 -13 105 -13
120 -1 18 15 18 39 -1 39 -18 0 -20 16 -2 24 6 4 -3 4 -22 1 -43 -7 -64 -23
-57 -47 4 -16 2 -17 -11 -6 -9 7 -18 12 -20 11 -16 -13 -12 2 8 24 13 14 19
23 12 20 -7 -5 -10 -1 -8 10 2 10 4 20 4 23 1 3 6 -2 11 -10 9 -13 10 -13 9 0
-2 45 -32 62 -50 28z"/>
<path d="M4255 2222 c-35 -25 -70 -124 -59 -167 7 -26 7 -26 31 14 13 23 21
46 18 51 -3 6 -1 10 4 10 6 0 11 6 11 14 0 8 6 17 13 20 9 5 9 7 0 12 -10 4
-9 9 2 21 22 22 5 43 -20 25z"/>
<path d="M676 2105 c-3 -8 -1 -15 4 -15 6 0 10 7 10 15 0 8 -2 15 -4 15 -2 0
-6 -7 -10 -15z"/>
<path d="M490 1926 c0 -42 -24 -106 -39 -106 -6 0 -11 -5 -11 -11 0 -5 4 -8 9
-5 5 3 5 -15 0 -41 -5 -25 -7 -48 -5 -50 2 -2 14 12 27 31 13 19 27 32 31 30
4 -3 5 2 2 10 -4 11 0 16 10 16 9 0 16 1 16 3 0 16 -29 150 -34 154 -3 4 -6
-10 -6 -31z"/>
<path d="M3466 1928 c3 -5 6 -26 6 -46 l0 -36 14 34 c17 39 15 52 -9 56 -9 1
-14 -2 -11 -8z m21 -20 c-3 -8 -6 -5 -6 6 -1 11 2 17 5 13 3 -3 4 -12 1 -19z"/>
<path d="M1113 1918 c-29 -37 -56 -137 -57 -208 -1 -66 3 -84 31 -140 18 -36
50 -84 73 -108 22 -23 40 -47 40 -52 0 -6 5 -10 11 -10 6 0 8 9 4 22 -11 32
-8 98 4 112 15 18 33 168 27 220 -5 51 -15 77 -36 96 -10 8 -20 25 -24 38 -4
13 -19 27 -33 33 -30 11 -29 11 -40 -3z"/>
<path d="M3523 1844 c-10 -14 -25 -34 -34 -44 -9 -10 -18 -34 -21 -54 -4 -32
-2 -35 15 -30 13 4 17 2 13 -5 -11 -18 9 -13 37 9 22 17 58 88 39 76 -5 -3
-14 -1 -22 5 -11 6 -7 9 15 10 17 0 24 3 18 6 -7 2 -13 11 -13 19 0 8 -5 14
-11 14 -5 0 -7 5 -4 10 14 23 -15 8 -32 -16z"/>
<path d="M3408 1782 c-24 -5 -23 -25 3 -48 17 -16 22 -16 29 -4 20 31 1 60
-32 52z"/>
<path d="M570 1748 c12 -21 18 -38 15 -38 -4 0 -2 -7 5 -15 6 -8 10 -18 8 -22
-3 -4 6 -19 19 -32 13 -13 23 -19 23 -13 0 6 -4 14 -10 17 -5 3 -10 11 -10 17
0 6 9 3 19 -6 33 -30 43 -13 11 20 -16 18 -26 35 -23 38 4 3 -1 6 -10 6 -8 0
-28 15 -42 33 l-27 32 22 -37z"/>
<path d="M791 1761 c-10 -6 -10 -10 -1 -16 13 -8 24 -1 19 14 -3 6 -10 7 -18
2z"/>
<path d="M4203 1709 c-29 -22 -53 -44 -53 -49 0 -5 -12 -16 -27 -24 -17 -9
-22 -16 -13 -16 11 -1 9 -4 -5 -11 -14 -7 -6 -8 29 -4 27 3 58 5 70 5 17 0 18
2 6 9 -8 6 -28 8 -45 5 -25 -4 -22 -1 18 18 26 13 47 28 47 34 0 6 7 17 15 24
9 7 13 15 10 18 -3 3 0 11 6 19 22 25 -6 12 -58 -28z"/>
<path d="M732 1706 c10 -7 14 -17 10 -21 -4 -5 -1 -5 6 -1 10 6 10 11 1 22 -6
8 -17 14 -23 14 -6 0 -3 -7 6 -14z"/>
<path d="M4290 1690 c-18 -12 -2 -12 25 0 13 6 15 9 5 9 -8 0 -22 -4 -30 -9z"/>
<path d="M835 1680 c3 -5 8 -10 11 -10 2 0 4 5 4 10 0 6 -5 10 -11 10 -5 0 -7
-4 -4 -10z"/>
<path d="M4245 1670 c-3 -6 1 -7 9 -4 18 7 21 14 7 14 -6 0 -13 -4 -16 -10z"/>
<path d="M529 1643 c-8 -14 -13 -49 -12 -77 1 -38 -1 -47 -8 -33 -11 18 -29
14 -29 -6 0 -7 4 -6 10 3 8 13 10 12 10 -3 0 -10 6 -24 12 -31 11 -11 15 -9
26 13 7 14 10 19 8 9 -3 -9 2 -40 10 -70 11 -43 13 -129 3 -158 -1 -3 -1 -8 0
-12 0 -5 -3 -8 -9 -8 -8 0 -50 -70 -50 -84 0 -3 12 -3 26 0 27 5 27 5 21 -48
l-6 -53 14 40 c8 22 26 50 40 62 31 27 33 47 4 38 -19 -6 -20 -5 -9 15 6 12 8
29 4 38 -7 17 -7 34 -4 125 1 28 4 43 6 32 13 -60 30 -97 52 -111 23 -15 25
-15 19 0 -5 13 -2 17 11 14 11 -3 16 -12 15 -26 -2 -17 5 -23 37 -32 22 -6 45
-8 51 -4 17 10 3 74 -28 130 -30 54 -130 159 -162 169 -13 4 -21 18 -26 45 -8
50 -18 56 -36 23z m188 -229 c-3 -3 -12 -4 -19 -1 -8 3 -5 6 6 6 11 1 17 -2
13 -5z m-157 -188 c0 -7 -7 -13 -15 -13 -15 0 -20 18 -9 30 9 9 24 -2 24 -17z"/>
<path d="M701 1641 c-16 -14 -18 -21 -9 -25 10 -5 10 -7 -2 -13 -9 -4 1 -11
30 -19 52 -16 68 -7 62 35 -3 22 -8 28 -20 24 -10 -4 -13 -2 -8 5 12 20 -29
14 -53 -7z"/>
<path d="M1393 1653 c-17 -6 -17 -20 0 -26 8 -3 13 3 13 14 0 11 0 19 -1 18 0
0 -6 -3 -12 -6z"/>
<path d="M1337 1643 c-11 -10 -8 -25 3 -18 6 3 10 1 10 -5 0 -7 7 -9 16 -6 9
3 12 2 8 -5 -3 -6 -15 -9 -25 -6 -10 3 -22 1 -25 -4 -3 -5 0 -9 6 -9 7 0 5 -7
-4 -16 -23 -23 -22 -120 2 -133 9 -6 12 -11 6 -11 -38 -1 -8 -190 30 -190 6 0
5 5 -2 12 -7 7 -12 17 -12 23 0 5 4 3 10 -5 5 -8 12 -11 16 -7 4 4 3 12 -3 18
-12 12 -6 39 11 51 7 5 6 8 -3 8 -8 0 -11 6 -7 16 4 11 -1 18 -14 21 -14 4
-17 9 -11 17 4 6 7 19 6 29 -2 9 1 17 5 17 5 0 11 -8 13 -17 2 -10 3 -1 2 20
-1 21 -5 40 -9 44 -3 3 -6 20 -6 37 0 24 3 28 11 16 8 -12 9 -11 7 5 -3 14
-10 19 -28 18 -15 -1 -18 0 -7 3 9 3 14 10 11 16 -4 6 1 8 15 3 16 -5 21 -2
21 13 0 10 -8 26 -18 35 -20 19 -26 20 -35 10z"/>
<path d="M3485 1584 c-71 -35 -81 -45 -89 -82 l-8 -32 46 0 c39 0 52 6 86 37
24 21 39 42 36 50 -3 8 -1 11 4 8 6 -3 10 1 10 10 0 12 -6 15 -20 10 -11 -3
-20 -2 -20 4 0 5 12 12 28 14 26 4 26 4 2 5 -14 1 -47 -10 -75 -24z"/>
<path d="M3326 1531 c-3 -4 4 -17 15 -27 18 -16 19 -16 13 -1 -3 9 -10 17 -16
17 -5 0 -6 5 -3 10 3 6 4 10 1 10 -3 0 -7 -4 -10 -9z"/>
<path d="M3842 1502 c-8 -5 1 -8 23 -8 19 1 35 4 35 9 0 9 -42 9 -58 -1z"/>
<path d="M3933 1498 c21 -7 32 -7 40 1 8 8 0 11 -28 10 -40 -1 -40 -1 -12 -11z"/>
<path d="M423 1478 c4 -10 2 -18 -3 -18 -15 0 -12 -17 4 -23 9 -4 12 2 10 20
-1 14 -6 28 -10 31 -4 4 -4 -1 -1 -10z"/>
<path d="M1080 1463 c0 -6 -3 -19 -7 -29 -5 -13 -2 -16 8 -12 10 4 14 -2 16
-20 1 -18 -1 -21 -8 -11 -5 8 -9 10 -9 4 0 -5 -5 -3 -10 5 -8 12 -10 9 -10
-12 0 -20 5 -28 18 -28 14 0 15 -2 2 -10 -13 -9 -13 -11 0 -21 12 -8 8 -10
-16 -7 -26 3 -30 1 -26 -14 5 -21 -8 -24 -26 -6 -9 9 -12 9 -12 -3 0 -33 62
-97 130 -135 20 -11 64 -37 96 -56 33 -20 73 -38 89 -42 25 -5 23 -2 -15 18
-25 13 -54 37 -66 53 -22 30 -64 138 -64 166 0 37 -89 196 -90 160z m80 -244
c0 -6 -4 -7 -10 -4 -5 3 -10 11 -10 16 0 6 5 7 10 4 6 -3 10 -11 10 -16z"/>
<path d="M486 1425 c4 -8 10 -15 15 -15 4 0 6 7 3 15 -4 8 -10 15 -15 15 -4 0
-6 -7 -3 -15z"/>
<path d="M4394 1426 c-3 -8 -21 -21 -40 -28 l-34 -12 78 -38 c42 -21 70 -38
63 -38 -8 0 -12 -2 -10 -5 10 -10 49 8 49 23 0 8 7 23 16 33 17 19 11 39 -12
39 -8 0 -13 4 -10 9 3 5 -10 12 -30 15 -19 4 -42 10 -50 13 -7 3 -17 -2 -20
-11z"/>
<path d="M462 1410 c7 -10 14 -18 15 -16 6 6 -9 36 -18 36 -5 0 -4 -9 3 -20z"/>
<path d="M930 1415 c0 -8 5 -15 11 -15 6 0 8 -7 5 -16 -3 -9 -2 -12 5 -9 5 4
7 16 3 28 -5 17 -3 19 6 11 6 -7 12 -28 13 -48 1 -20 5 -36 9 -36 14 0 6 64
-10 83 -18 21 -42 22 -42 2z"/>
<path d="M520 1404 c0 -8 5 -12 10 -9 6 3 10 10 10 16 0 5 -4 9 -10 9 -5 0
-10 -7 -10 -16z"/>
<path d="M1432 1378 c-7 -7 -12 -18 -12 -25 0 -14 21 -14 31 1 4 4 5 -26 4
-68 -2 -82 11 -90 21 -14 12 87 -10 140 -44 106z"/>
<path d="M1261 1293 c77 -130 175 -253 199 -253 5 0 12 -9 15 -20 4 -11 11
-18 16 -14 5 3 -2 19 -16 36 -14 16 -25 34 -25 39 0 5 -3 8 -7 6 -10 -3 -13 7
-12 31 0 14 2 14 9 -3 7 -16 9 -17 9 -3 1 9 -3 19 -9 23 -6 4 -6 15 1 32 5 14
7 28 4 31 -3 3 -5 0 -5 -6 0 -6 -9 -9 -20 -7 -24 5 -24 1 -6 -28 8 -13 11 -30
7 -41 -7 -17 -10 -16 -33 15 -14 19 -35 54 -46 79 -22 46 -81 120 -95 120 -5
0 1 -17 14 -37z"/>
<path d="M4021 1301 c-56 -52 -30 -83 32 -39 61 43 71 68 28 68 -18 0 -40 -11
-60 -29z"/>
<path d="M4690 1300 c0 -16 -4 -30 -10 -30 -5 0 -10 4 -10 9 0 5 -8 7 -18 4
-17 -4 -80 8 -114 22 -11 4 -18 3 -18 -4 0 -6 7 -11 16 -11 9 0 23 -8 30 -17
7 -10 16 -18 21 -19 15 -1 48 -17 63 -30 25 -21 118 -26 200 -12 76 13 98 36
29 30 -20 -2 -40 1 -44 7 -3 6 -15 11 -25 11 -10 0 -21 9 -25 19 -5 15 -68 51
-90 51 -3 0 -5 -13 -5 -30z"/>
<path d="M1420 1300 c0 -5 5 -10 10 -10 6 0 10 5 10 10 0 6 -4 10 -10 10 -5 0
-10 -4 -10 -10z"/>
<path d="M4190 1283 c-20 -8 -40 -29 -40 -42 0 -19 66 -17 105 3 24 13 25 14
5 19 -13 3 -18 1 -14 -6 4 -7 -3 -2 -15 11 -12 12 -23 22 -24 21 -1 0 -9 -3
-17 -6z"/>
<path d="M1399 1234 c-10 -13 -10 -17 1 -24 17 -10 30 -4 30 15 0 22 -16 26
-31 9z"/>
<path d="M3355 1230 c-3 -6 1 -7 9 -4 18 7 21 14 7 14 -6 0 -13 -4 -16 -10z"/>
<path d="M4155 1210 c-7 -12 2 -30 16 -30 12 0 12 27 0 35 -5 3 -12 1 -16 -5z"/>
<path d="M4000 1190 c6 -11 13 -20 16 -20 2 0 0 9 -6 20 -6 11 -13 20 -16 20
-2 0 0 -9 6 -20z"/>
<path d="M3335 1134 c-16 -7 -41 -11 -55 -9 -22 5 -23 4 -7 -6 13 -8 27 -8 49
0 39 14 38 14 38 -5 0 -8 4 -13 9 -10 12 8 41 -4 41 -16 0 -6 -7 -8 -15 -4
-17 6 -20 -5 -5 -20 6 -6 5 -15 -1 -24 -9 -12 -10 -12 -5 4 5 14 2 17 -10 12
-8 -3 -21 -6 -27 -6 -7 0 -3 -8 8 -17 19 -15 19 -15 -13 -9 -30 5 -33 4 -27
-15 5 -14 3 -19 -4 -15 -6 4 -20 -2 -31 -12 -17 -16 -18 -20 -6 -25 23 -9 122
63 139 101 15 33 15 36 -6 53 -12 10 -26 19 -32 19 -5 0 -3 5 5 10 24 15 -8
11 -45 -6z"/>
<path d="M3462 1130 c-12 -12 -22 -26 -22 -33 0 -6 12 1 26 16 31 33 27 46 -4
17z"/>
<path d="M3420 1129 c0 -5 5 -7 10 -4 6 3 10 8 10 11 0 2 -4 4 -10 4 -5 0 -10
-5 -10 -11z"/>
<path d="M3190 1115 c-10 -12 -10 -15 3 -15 19 0 31 16 18 24 -5 3 -14 -1 -21
-9z"/>
<path d="M3131 1089 c-13 -5 -21 -12 -18 -15 3 -3 18 1 34 10 31 17 21 20 -16
5z"/>
<path d="M3450 1030 c-9 -6 -10 -10 -3 -10 6 0 15 5 18 10 8 12 4 12 -15 0z"/>
<path d="M757 1019 c7 -7 15 -10 18 -7 3 3 -2 9 -12 12 -14 6 -15 5 -6 -5z"/>
<path d="M940 1004 c0 -24 28 -46 49 -39 11 3 22 1 26 -4 4 -7 -1 -8 -12 -4
-15 6 -16 4 -5 -9 10 -13 10 -17 0 -21 -7 -2 5 -12 26 -21 22 -9 42 -13 45
-10 3 4 0 9 -6 11 -7 3 -13 12 -13 21 -1 23 -30 56 -68 76 -38 20 -42 20 -42
0z"/>
<path d="M2955 1010 c-8 -13 5 -13 25 0 13 8 13 10 -2 10 -9 0 -20 -4 -23 -10z"/>
<path d="M3518 1013 c6 -2 18 -2 25 0 6 3 1 5 -13 5 -14 0 -19 -2 -12 -5z"/>
<path d="M3596 1012 c-2 -4 11 -6 30 -4 19 2 34 6 34 8 0 8 -59 4 -64 -4z"/>
<path d="M1530 980 c0 -13 18 -22 24 -11 3 5 -1 11 -9 15 -8 3 -15 1 -15 -4z"/>
<path d="M2809 981 c-8 -3 -15 -17 -17 -31 -2 -14 1 -20 5 -14 11 16 62 23 66
10 2 -6 7 -8 11 -5 22 21 -31 53 -65 40z"/>
<path d="M2880 979 c0 -5 5 -7 10 -4 6 3 10 8 10 11 0 2 -4 4 -10 4 -5 0 -10
-5 -10 -11z"/>
<path d="M2280 956 c0 -7 20 -19 45 -26 51 -14 64 -10 38 11 -11 9 -14 10 -9
2 10 -18 -2 -16 -21 2 -8 8 -19 13 -24 10 -5 -4 -9 -1 -9 4 0 6 -4 11 -10 11
-5 0 -10 -6 -10 -14z"/>
<path d="M928 953 c7 -3 16 -2 19 1 4 3 -2 6 -13 5 -11 0 -14 -3 -6 -6z"/>
<path d="M1575 943 c23 -16 38 -17 33 -1 -2 6 -15 12 -28 13 -21 2 -22 1 -5
-12z"/>
<path d="M2618 943 c7 -3 16 -2 19 1 4 3 -2 6 -13 5 -11 0 -14 -3 -6 -6z"/>
<path d="M2728 943 c12 -2 30 -2 40 0 9 3 -1 5 -23 4 -22 0 -30 -2 -17 -4z"/>
<path d="M3368 933 c7 -3 16 -2 19 1 4 3 -2 6 -13 5 -11 0 -14 -3 -6 -6z"/>
<path d="M1194 891 c18 -34 74 -83 86 -76 5 3 11 1 15 -5 4 -6 -9 -10 -32 -10
-58 0 -68 -11 -39 -43 20 -21 34 -27 68 -27 65 0 116 11 114 24 -3 22 -17 36
-37 36 -11 0 -23 10 -29 24 -5 14 -26 43 -46 65 -31 35 -42 41 -75 41 l-40 0
15 -29z"/>
<path d="M3186 910 c-16 -5 -17 -8 -4 -12 16 -7 45 7 32 14 -5 3 -18 2 -28 -2z"/>
<path d="M956 871 c-9 -15 45 -44 90 -49 32 -3 47 0 60 13 17 17 17 18 -1 31
-21 16 -140 20 -149 5z"/>
<path d="M2888 873 c7 -3 16 -2 19 1 4 3 -2 6 -13 5 -11 0 -14 -3 -6 -6z"/>
<path d="M3380 862 c0 -8 84 -52 100 -52 24 0 -5 29 -43 44 -48 18 -57 19 -57
8z"/>
<path d="M1405 826 c8 -13 38 -38 65 -57 28 -19 50 -37 50 -41 0 -5 -31 -8
-70 -8 -58 0 -71 -3 -80 -19 -7 -15 -6 -23 6 -35 36 -37 105 -28 157 20 22 20
34 24 58 19 l30 -7 -45 -29 c-109 -68 -44 -142 79 -89 58 25 83 27 65 5 -10
-13 -10 -19 2 -33 8 -9 18 -25 21 -34 14 -40 136 0 191 61 11 11 22 21 26 21
12 0 30 -49 24 -65 -5 -11 -2 -13 10 -9 12 5 15 2 9 -12 -5 -14 -3 -16 13 -9
10 5 36 8 57 7 20 -1 37 3 37 8 0 5 8 6 17 3 12 -5 15 -2 10 10 -4 11 -2 14 7
11 7 -3 25 8 38 25 16 19 29 26 35 20 6 -6 20 -6 37 1 15 5 41 10 57 10 16 0
29 4 29 9 0 5 9 13 21 16 l21 7 -21 22 c-12 12 -21 28 -21 34 0 7 -6 12 -13
12 -8 0 -22 9 -31 19 -24 27 -108 61 -165 68 -43 5 -51 2 -85 -27 -36 -32 -37
-34 -19 -51 10 -9 34 -26 53 -37 19 -10 36 -26 38 -35 3 -14 -5 -17 -37 -17
-22 0 -43 5 -46 10 -3 6 -14 10 -23 10 -11 0 -24 16 -35 44 -10 23 -30 55 -46
70 -28 27 -87 44 -116 32 -15 -5 -14 -12 10 -51 39 -67 26 -76 -20 -14 -29 38
-53 59 -86 73 -52 21 -102 16 -93 -9 4 -8 1 -15 -6 -15 -7 0 -1 -11 14 -25 15
-14 34 -25 42 -25 7 0 14 -5 14 -11 0 -7 -14 -8 -42 -4 -24 4 -43 8 -44 9 0 0
-17 25 -38 54 -44 61 -79 82 -136 82 -40 0 -40 0 -25 -24z m375 -206 c-28 -22
-44 -21 -48 3 -3 14 4 17 35 17 l38 0 -25 -20z"/>
<path d="M3490 615 c-11 -13 -8 -15 18 -15 17 0 34 5 37 10 3 6 2 10 -4 10 -5
0 -16 2 -24 5 -7 3 -20 -1 -27 -10z"/>
<path d="M3568 603 c7 -3 16 -2 19 1 4 3 -2 6 -13 5 -11 0 -14 -3 -6 -6z"/>
<path d="M1961 551 c-15 -10 -6 -51 11 -51 6 0 5 6 -3 16 -10 13 -10 17 1 24
8 5 12 11 9 14 -2 3 -11 1 -18 -3z"/>
</g>
</svg>
